<svg version="1.1" xmlns="http://www.w3.org/2000/svg" viewBox="0 0 1332.9980427830997 566.713177611441" width="1332.9980427830997" height="566.713177611441" filter="invert(93%) hue-rotate(180deg)">
  <!-- svg-source:excalidraw -->
  
  <defs>
    <style class="style-fonts">
      @font-face {
        font-family: "Virgil";
        src: url("https://excalidraw.com/Virgil.woff2");
      }
      @font-face {
        font-family: "Cascadia";
        src: url("https://excalidraw.com/Cascadia.woff2");
      }
    </style>
    
  </defs>
  <g stroke-linecap="round" transform="translate(69.41137112005015 365.9313006854743) rotate(0 550.9983916595286 62.673797717215734)"><path d="M1.56 0.2 L1101.45 1.75 L1100.32 126.62 L0.81 127.04" stroke="none" stroke-width="0" fill="#ebfbee"></path><path d="M-0.65 -0.79 C245.12 -0.58, 490.7 -1.84, 1102.37 0.51 M1101.72 -0.93 C1102.99 39.72, 1100.01 83.24, 1101.21 123.69 M1101.31 125.52 C736.81 125.96, 371.57 126.13, -0.36 126.12 M0.16 124.36 C0 74.11, -1.19 26.28, -1.95 0.45" stroke="transparent" stroke-width="2.5" fill="none" stroke-dasharray="8 10"></path></g><g stroke-linecap="round"><g transform="translate(49.73351651193218 458.9075974260462) rotate(0 18.394791118937718 0.48739324043387455)"><path d="M1.19 -0.67 C7.16 -0.65, 30.62 -0.41, 36.43 -0.27 M0.36 1.6 C6.22 1.83, 30.21 1.13, 36.1 1.12" stroke="#343a40" stroke-width="1" fill="none"></path></g></g><mask></mask><g stroke-linecap="round"><g transform="translate(49.80925041691512 426.60886946513307) rotate(0 18.319057213954807 0.2509382707204679)"><path d="M0.73 -0.94 C6.54 -1.11, 28.69 -0.13, 34.61 -0.06 M-0.35 1.18 C5.88 1.13, 30.93 1.56, 36.99 1.44" stroke="#343a40" stroke-width="1" fill="none"></path></g></g><mask></mask><g stroke-linecap="round"><g transform="translate(50.79111405135711 395.00625236184914) rotate(0 17.337193579512814 -0.16269200883726853)"><path d="M0.81 0.47 C6.57 0.48, 29.04 -0.89, 34.9 -0.79 M-0.22 -0.32 C5.32 -0.12, 27.8 0.4, 33.76 0.33" stroke="#343a40" stroke-width="1" fill="none"></path></g></g><mask></mask><g stroke-linecap="round"><g transform="translate(50.945095689316474 363.9480854819677) rotate(0 17.183211941553452 -0.7706732049677498)"><path d="M-0.38 -0.38 C5.35 -0.41, 28.73 -0.87, 34.74 -0.95 M1.63 -1.63 C7.12 -1.47, 27.94 -0.19, 33.52 0.09" stroke="#343a40" stroke-width="1" fill="none"></path></g></g><mask></mask><g stroke-linecap="round"><g transform="translate(50.6154882586153 331.40069764746056) rotate(0 17.512819372254597 0.11432644269893899)"><path d="M0.27 0.68 C6.48 0.62, 30.26 -0.28, 36.07 -0.52 M-1.05 -0.01 C5.17 0.1, 29.65 0.72, 35.55 0.75" stroke="#343a40" stroke-width="1" fill="none"></path></g></g><mask></mask><g stroke-linecap="round"><g transform="translate(50.299924172178066 299.55222030710206) rotate(0 17.82838345869183 0.07542941272258474)"><path d="M0.91 1.16 C6.85 1.1, 30 -0.76, 35.73 -1.01 M-0.07 0.73 C5.75 0.84, 29.26 -0.02, 35.03 0" stroke="#343a40" stroke-width="1" fill="none"></path></g></g><mask></mask><g stroke-linecap="round"><g transform="translate(51.30533787609653 268.50590219105436) rotate(0 16.822969754773368 -0.8960256639216055)"><path d="M-0.15 -0.4 C5.64 -0.52, 29.26 -1.34, 35.34 -1.1 M-1.69 -1.66 C3.9 -1.64, 28.14 -0.3, 34.43 -0.13" stroke="#343a40" stroke-width="1" fill="none"></path></g></g><mask></mask><g stroke-linecap="round"><g transform="translate(50.512541464582284 236.1828943081785) rotate(0 17.615766166287642 -0.4800568745475715)"><path d="M0.39 0.19 C6.43 0.22, 30.21 0.63, 36.09 0.45 M-0.86 -0.75 C5.1 -1.11, 29.58 -1.55, 35.58 -1.44" stroke="#343a40" stroke-width="1" fill="none"></path></g></g><mask></mask><g stroke-linecap="round"><g transform="translate(50.729783310905304 203.9566776619725) rotate(0 17.398524319964622 -0.2480621606111555)"><path d="M-0.02 0.6 C5.84 0.35, 30.38 -0.93, 36.28 -1.1 M-1.49 -0.13 C4.21 -0.31, 29.84 -0.28, 35.88 -0.14" stroke="#343a40" stroke-width="1" fill="none"></path></g></g><mask></mask><g stroke-linecap="round"><g transform="translate(49.5602427293465 172.31774765056298) rotate(0 18.568064901523456 -0.2329785615205786)"><path d="M1.14 0.37 C6.83 0.17, 29.02 -0.59, 34.52 -0.84 M0.29 -0.48 C6.33 -0.58, 30.81 0.24, 36.85 0.26" stroke="#343a40" stroke-width="1" fill="none"></path></g></g><mask></mask><g stroke-linecap="round"><g transform="translate(51.11490226509159 140.61489552001282) rotate(0 17.01340536577831 -0.19983160793781174)"><path d="M-0.84 0.7 C4.81 0.54, 28.95 -1.02, 34.87 -1.1 M0.92 0.02 C6.29 -0.02, 28.26 -0.41, 33.72 -0.13" stroke="#343a40" stroke-width="1" fill="none"></path></g></g><mask></mask><g stroke-linecap="round"><g transform="translate(50.31995270253742 108.377204310837) rotate(0 17.808354928332534 0.3020749404234806)"><path d="M0.84 0.52 C6.75 0.32, 30.06 -0.31, 35.79 -0.37 M-0.17 -0.25 C5.6 -0.35, 29.35 0.67, 35.12 0.97" stroke="#343a40" stroke-width="1" fill="none"></path></g></g><mask></mask><g transform="translate(15.419998168945312 414.70691906761954) rotate(0 15.009986877441406 12.5)"><text x="0" y="0" font-family="Virgil, Segoe UI Emoji" font-size="20px" fill="#343a40" text-anchor="start" style="white-space: pre;" direction="ltr" dominant-baseline="text-before-edge">2G</text></g><g transform="translate(16.860000610351562 351.1645413360877) rotate(0 14.289985656738281 12.5)"><text x="0" y="0" font-family="Virgil, Segoe UI Emoji" font-size="20px" fill="#343a40" text-anchor="start" style="white-space: pre;" direction="ltr" dominant-baseline="text-before-edge">4G</text></g><g transform="translate(16.860000610351562 287.6221636045559) rotate(0 14.289985656738281 12.5)"><text x="0" y="0" font-family="Virgil, Segoe UI Emoji" font-size="20px" fill="#343a40" text-anchor="start" style="white-space: pre;" direction="ltr" dominant-baseline="text-before-edge">6G</text></g><g transform="translate(14.360000610351562 224.0797858730241) rotate(0 15.539985656738281 12.5)"><text x="0" y="0" font-family="Virgil, Segoe UI Emoji" font-size="20px" fill="#343a40" text-anchor="start" style="white-space: pre;" direction="ltr" dominant-baseline="text-before-edge">8G</text></g><g transform="translate(10.479995727539062 160.53740814149228) rotate(0 17.47998809814453 12.5)"><text x="0" y="0" font-family="Virgil, Segoe UI Emoji" font-size="20px" fill="#343a40" text-anchor="start" style="white-space: pre;" direction="ltr" dominant-baseline="text-before-edge">10G</text></g><g transform="translate(10 96.99503040996046) rotate(0 17.719985961914062 12.5)"><text x="0" y="0" font-family="Virgil, Segoe UI Emoji" font-size="20px" fill="#343a40" text-anchor="start" style="white-space: pre;" direction="ltr" dominant-baseline="text-before-edge">12G</text></g><g stroke-linecap="round"><g transform="translate(68.41481001488205 515.5398955344012) rotate(0 0.7076493328856373 -230.85841017658586)"><path d="M-0.31 -0.98 C-0.23 -77.72, 0.73 -384.22, 0.64 -461.23 M1.73 1.12 C1.69 -75.88, 0.06 -385.62, 0.03 -462.84" stroke="#343a40" stroke-width="1" fill="none"></path></g><g transform="translate(68.41481001488205 515.5398955344012) rotate(0 0.7076493328856373 -230.85841017658586)"><path d="M8.75 -433.61 C8.95 -444.99, 2.65 -452.37, -0.54 -464.27 M10.14 -435.63 C7.35 -442.58, 3.38 -452.23, -0.76 -463.58" stroke="#343a40" stroke-width="1" fill="none"></path></g><g transform="translate(68.41481001488205 515.5398955344012) rotate(0 0.7076493328856373 -230.85841017658586)"><path d="M-11.77 -433.54 C-5.12 -444.89, -4.98 -452.29, -0.54 -464.27 M-10.38 -435.56 C-6.93 -442.51, -4.67 -452.17, -0.76 -463.58" stroke="#343a40" stroke-width="1" fill="none"></path></g></g><mask></mask><g stroke-linecap="round"><g transform="translate(37.15334850524221 491.2770998676569) rotate(0 583.5278564539759 -0.3737600833696888)"><path d="M-0.56 0.51 C194.02 0.65, 972.87 0.63, 1167.62 0.52 M1.35 -0.26 C195.83 -0.46, 972.72 -1.55, 1167.12 -1.33" stroke="#343a40" stroke-width="1" fill="none"></path></g><g transform="translate(37.15334850524221 491.2770998676569) rotate(0 583.5278564539759 -0.3737600833696888)"><path d="M1139.78 10.36 C1148.6 7.76, 1156.24 1.77, 1167.5 -3.1 M1138.32 9.9 C1150.87 5.32, 1160.56 1.55, 1167.96 -2.23" stroke="#343a40" stroke-width="1" fill="none"></path></g><g transform="translate(37.15334850524221 491.2770998676569) rotate(0 583.5278564539759 -0.3737600833696888)"><path d="M1139.78 -10.16 C1148.54 -6.37, 1156.19 -5.98, 1167.5 -3.1 M1138.31 -10.62 C1151.02 -7.1, 1160.72 -2.78, 1167.96 -2.23" stroke="#343a40" stroke-width="1" fill="none"></path></g></g><mask></mask><g transform="translate(229.79770747089856 452.1358959347619) rotate(0 22.64997100830078 12.5)"><text x="0" y="0" font-family="Virgil, Segoe UI Emoji" font-size="20px" fill="#343a40" text-anchor="start" style="white-space: pre;" direction="ltr" dominant-baseline="text-before-edge">base</text></g><g transform="translate(229.79770747089856 386.95554645354355) rotate(0 53.91992950439453 12.5)"><text x="0" y="0" font-family="Virgil, Segoe UI Emoji" font-size="20px" fill="#343a40" text-anchor="start" style="white-space: pre;" direction="ltr" dominant-baseline="text-before-edge">gui + tools</text></g><g transform="translate(229.79770747089856 316.69868338316866) rotate(0 21.269973754882812 12.5)"><text x="0" y="0" font-family="Virgil, Segoe UI Emoji" font-size="20px" fill="#343a40" text-anchor="start" style="white-space: pre;" direction="ltr" dominant-baseline="text-before-edge">build</text></g><g stroke-linecap="round"><g transform="translate(177.08152619720397 507.10614239079115) rotate(0 -0.5666828768485743 -13.861618873282538)"><path d="M0.06 -0.66 C0.1 -5.44, 0.37 -24.44, 0.18 -29.33 M-1.36 1.61 C-1.47 -2.91, -1.11 -22.65, -0.67 -27.76" stroke="#343a40" stroke-width="1" fill="none"></path></g></g><mask></mask><g transform="translate(129.88535151705503 531.713177611441) rotate(0 51.88993835449219 12.5)"><text x="0" y="0" font-family="Virgil, Segoe UI Emoji" font-size="20px" fill="#343a40" text-anchor="start" style="white-space: pre;" direction="ltr" dominant-baseline="text-before-edge">platform X</text></g><g stroke-linecap="round" transform="translate(135.32740835497918 440.5867046485103) rotate(0 41.41805165965553 24.049191286251585)"><path d="M3.2 2.78 C3.2 2.78, 3.2 2.78, 3.2 2.78 M3.2 2.78 C3.2 2.78, 3.2 2.78, 3.2 2.78 M4.65 13.31 C8.03 10.29, 13.44 4.8, 14.49 1.99 M4.65 13.31 C7.17 10.09, 9.89 8.74, 14.49 1.99 M4.78 25.35 C13.36 15.54, 19.56 9.63, 25.12 1.96 M4.78 25.35 C11.27 19.07, 17.22 10.56, 25.12 1.96 M2.29 40.41 C9.96 30.02, 17.86 20.16, 35.75 1.92 M2.29 40.41 C13.47 27.29, 26.37 13.85, 35.75 1.92 M6.36 47.93 C13.63 38.81, 25.37 28.92, 46.38 1.89 M6.36 47.93 C15.26 37.67, 25.45 24.37, 46.38 1.89 M15.02 50.16 C25.52 36.42, 39.56 22.32, 57.01 1.86 M15.02 50.16 C31.84 32.05, 47.22 11.73, 57.01 1.86 M25.65 50.12 C36.14 36.08, 48.58 25.96, 67.64 1.82 M25.65 50.12 C40.67 32.63, 57.12 14.12, 67.64 1.82 M35.62 50.84 C47.95 36.34, 59.77 24.87, 78.27 1.79 M35.62 50.84 C48.62 35.97, 60.9 21.9, 78.27 1.79 M46.25 50.81 C55.5 37.55, 67.22 25.5, 84.31 7.03 M46.25 50.81 C60.44 33.68, 75.15 15.63, 84.31 7.03 M56.88 50.77 C70.35 35.27, 80.62 21.45, 88.37 14.55 M56.88 50.77 C62.74 43.05, 70.93 35.99, 88.37 14.55 M67.51 50.74 C74.2 41.55, 81.21 35.34, 88.51 26.59 M67.51 50.74 C72.25 45.79, 76.66 40.05, 88.51 26.59" stroke="#38d9a9" stroke-width="1" fill="none"></path><path d="M12.02 0 M12.02 0 C28.72 -1.99, 44.01 -0.14, 70.81 0 M12.02 0 C34.57 -0.3, 56.42 0.88, 70.81 0 M70.81 0 C76.94 0.75, 83.44 4.92, 82.84 12.02 M70.81 0 C80.64 -0.49, 84.99 5.08, 82.84 12.02 M82.84 12.02 C84.84 21.09, 82.88 29.25, 82.84 36.07 M82.84 12.02 C82.6 19.98, 82.89 27.45, 82.84 36.07 M82.84 36.07 C83.49 44.49, 78.61 49.73, 70.81 48.1 M82.84 36.07 C81 42.99, 81 46.42, 70.81 48.1 M70.81 48.1 C56.62 47.66, 44.73 46.76, 12.02 48.1 M70.81 48.1 C51.06 47.71, 30.4 47.62, 12.02 48.1 M12.02 48.1 C2.11 46.72, -1.11 45.23, 0 36.07 M12.02 48.1 C2.12 48.18, 1.03 44.74, 0 36.07 M0 36.07 C1.37 27.12, -1 17.31, 0 12.02 M0 36.07 C-0.85 28.79, 1.06 22.65, 0 12.02 M0 12.02 C1.68 2.94, 2.56 1.79, 12.02 0 M0 12.02 C-1.2 4.44, 4.93 0.68, 12.02 0" stroke="#343a40" stroke-width="2" fill="none"></path></g><g stroke-linecap="round" transform="translate(133.5459867782199 364.71782570673565) rotate(0 41.418051659655475 34.737720746807895)"><path d="M4.62 4.02 C4.62 4.02, 4.62 4.02, 4.62 4.02 M4.62 4.02 C4.62 4.02, 4.62 4.02, 4.62 4.02 M4.1 16.81 C9.64 12.22, 14.26 4.07, 17.88 0.97 M4.1 16.81 C8.6 10.73, 12.66 5.91, 17.88 0.97 M4.23 28.86 C8.31 21.84, 14.63 16.78, 28.51 0.93 M4.23 28.86 C13.65 18.24, 22.86 7.29, 28.51 0.93 M4.37 40.9 C11.81 28.31, 21.93 20.26, 39.14 0.9 M4.37 40.9 C15.98 26.61, 28.57 12.67, 39.14 0.9 M1.22 56.71 C17.46 37.18, 37.2 16.81, 49.77 0.86 M1.22 56.71 C12.34 45.99, 21.15 33.67, 49.77 0.86 M4.63 64.98 C18.13 50.29, 30.9 34.05, 60.4 0.83 M4.63 64.98 C21.31 47.29, 37.4 28.63, 60.4 0.83 M11.98 68.72 C29.44 50.76, 43.33 32.17, 70.37 1.55 M11.98 68.72 C25.21 53.31, 36.2 40.08, 70.37 1.55 M18.02 73.97 C32.83 58.37, 45.03 40.57, 78.38 4.53 M18.02 73.97 C30.98 59.14, 43.7 43.48, 78.38 4.53 M28.65 73.93 C42.35 58.85, 53.79 40.74, 83.1 11.29 M28.65 73.93 C43.16 56.92, 57.66 39.91, 83.1 11.29 M39.28 73.9 C48.33 60.74, 59.3 51.54, 85.86 20.31 M39.28 73.9 C57.97 52.98, 73.83 33.57, 85.86 20.31 M49.91 73.86 C63.93 60.36, 75.85 43.29, 85.99 32.35 M49.91 73.86 C63.12 58.43, 75.74 42.78, 85.99 32.35 M60.54 73.83 C70.32 61.95, 79.82 51.77, 86.13 44.39 M60.54 73.83 C70.03 63.26, 78.95 51.9, 86.13 44.39 M4.34 65.13 C4.34 65.13, 4.34 65.13, 4.34 65.13 M4.34 65.13 C4.34 65.13, 4.34 65.13, 4.34 65.13 M16.38 64.99 C12.45 61.75, 9.62 58.11, 2.79 53.19 M16.38 64.99 C11.38 60.85, 7.19 57.62, 2.79 53.19 M29.17 65.52 C20.59 58.1, 11.41 48.27, 2.76 42.56 M29.17 65.52 C21.7 60.07, 15.72 52.96, 2.76 42.56 M41.21 65.38 C33.71 58.02, 24.51 52.29, 2.72 31.93 M41.21 65.38 C32.01 57.31, 21.28 47.99, 2.72 31.93 M53.25 65.25 C39.25 53.36, 25.95 42.72, 2.69 21.3 M53.25 65.25 C38.64 52.59, 24.23 40.92, 2.69 21.3 M67.56 67.09 C49.12 52.46, 30.48 36.39, 2.65 10.67 M67.56 67.09 C43.85 46.38, 20.22 27.52, 2.65 10.67 M76.58 64.33 C58.25 50.94, 41.75 36.26, 5.64 2.66 M76.58 64.33 C56.21 46.78, 36.5 31.35, 5.64 2.66 M83.34 59.6 C55.5 36.84, 29.14 13.34, 12.4 -2.07 M83.34 59.6 C60.72 38.87, 35.88 18.54, 12.4 -2.07 M86.32 51.6 C74.06 38.13, 59.4 26.41, 21.42 -4.82 M86.32 51.6 C69 37.41, 51.75 21.32, 21.42 -4.82 M86.29 40.97 C69.33 28.11, 54.03 10.11, 33.46 -4.96 M86.29 40.97 C66.48 23.55, 47.37 6.75, 33.46 -4.96 M86.25 30.34 C75.36 18.63, 62.32 11.99, 46.25 -4.43 M86.25 30.34 C76.82 21.56, 66.26 13.15, 46.25 -4.43 M83.2 17.08 C76.64 10.24, 66.14 3.55, 58.3 -4.57 M83.2 17.08 C77.38 11.09, 69.74 5.26, 58.3 -4.57" stroke="#ff8787" stroke-width="1" fill="none"></path><path d="M17.37 0 M17.37 0 C28.84 0.98, 38.24 1.27, 65.47 0 M17.37 0 C35.46 -0.17, 51.6 0.57, 65.47 0 M65.47 0 C77.17 1.7, 84.75 4.37, 82.84 17.37 M65.47 0 C79.13 -0.29, 83.26 6.57, 82.84 17.37 M82.84 17.37 C81.86 26.83, 82.61 35.74, 82.84 52.11 M82.84 17.37 C82.84 31.52, 83.51 44.41, 82.84 52.11 M82.84 52.11 C82.12 64.97, 75.55 68.4, 65.47 69.48 M82.84 52.11 C82.16 64.76, 78.27 67.82, 65.47 69.48 M65.47 69.48 C51.62 68.97, 38.56 70.67, 17.37 69.48 M65.47 69.48 C49.55 69.97, 32.9 70.64, 17.37 69.48 M17.37 69.48 C6.81 69.4, 0.88 63.01, 0 52.11 M17.37 69.48 C3.7 69.22, 1.15 65.71, 0 52.11 M0 52.11 C0.68 36.79, -0.45 25.05, 0 17.37 M0 52.11 C1.15 42.85, -0.61 36.33, 0 17.37 M0 17.37 C-1.36 5.85, 7.54 -0.91, 17.37 0 M0 17.37 C1.98 6.88, 3.65 0.94, 17.37 0" stroke="#343a40" stroke-width="2" fill="none"></path></g><g stroke-linecap="round" transform="translate(134.88205296078934 301.14129354920846) rotate(0 40.08198547708594 28.0573898339602)"><path d="M1.87 5.6 C1.87 5.6, 1.87 5.6, 1.87 5.6 M1.87 5.6 C1.87 5.6, 1.87 5.6, 1.87 5.6 M4.63 14.62 C7.9 11.79, 9.48 8.19, 15.78 1.79 M4.63 14.62 C8.09 9.4, 12.85 5.46, 15.78 1.79 M4.76 26.66 C14.3 16.8, 18.15 8.78, 26.41 1.76 M4.76 26.66 C13.14 17.76, 22.6 7.02, 26.41 1.76 M4.89 38.7 C11.7 30.26, 19.34 21.61, 37.04 1.72 M4.89 38.7 C13.13 28.55, 21.91 20.03, 37.04 1.72 M5.68 49.99 C16.01 40.01, 22.84 27.79, 47.67 1.69 M5.68 49.99 C16.6 36.02, 29.54 23.24, 47.67 1.69 M9.75 57.5 C25.41 38.79, 43.07 20.34, 58.3 1.65 M9.75 57.5 C26.97 37.46, 42.45 18.21, 58.3 1.65 M18.41 59.73 C37.15 39.26, 55.95 15.42, 68.27 2.37 M18.41 59.73 C31.14 44.28, 43.99 29.09, 68.27 2.37 M29.04 59.7 C43.41 41.77, 56.25 27.97, 77.59 3.85 M29.04 59.7 C44.4 43.41, 57.89 28.09, 77.59 3.85 M39.67 59.66 C50.06 47.51, 60.15 40.6, 82.32 10.61 M39.67 59.66 C49.58 48.75, 58.25 36.9, 82.32 10.61 M50.3 59.63 C62.46 45.5, 74.91 31.75, 85.73 18.87 M50.3 59.63 C62.81 45.23, 74.59 30.76, 85.73 18.87 M60.93 59.59 C68.89 51.52, 77.48 43.94, 85.86 30.91 M60.93 59.59 C71.04 50.18, 79.85 38.64, 85.86 30.91" stroke="#228be6" stroke-width="1" fill="none"></path><path d="M14.03 0 M14.03 0 C26.72 0.51, 35.21 1.3, 66.14 0 M14.03 0 C30.32 -0.14, 47.45 -0.28, 66.14 0 M66.14 0 C74.34 1.19, 79.2 3.92, 80.16 14.03 M66.14 0 C77.2 -0.74, 82.31 4.57, 80.16 14.03 M80.16 14.03 C79.53 25.89, 79.13 33.51, 80.16 42.09 M80.16 14.03 C80.44 22.44, 81.25 30.05, 80.16 42.09 M80.16 42.09 C80.51 49.65, 75 54.89, 66.14 56.11 M80.16 42.09 C78.89 52.74, 76.26 55.41, 66.14 56.11 M66.14 56.11 C48.28 57.07, 35.51 56.75, 14.03 56.11 M66.14 56.11 C48.69 56.65, 33.06 56.88, 14.03 56.11 M14.03 56.11 C4.78 57.16, -0.41 52.45, 0 42.09 M14.03 56.11 C6.3 55.05, 0.89 49.79, 0 42.09 M0 42.09 C-0.41 30.99, 0.95 22.55, 0 14.03 M0 42.09 C0.39 35.69, 0.75 30.22, 0 14.03 M0 14.03 C-1.2 3.42, 4.01 -0.14, 14.03 0 M0 14.03 C0 5.2, 4.13 -1.61, 14.03 0" stroke="#343a40" stroke-width="2" fill="none"></path></g><g stroke-linecap="round" transform="translate(133.20992059565037 171.54287383996393) rotate(0 40.08198547708594 61.013689004008626)"><path d="M2.86 7.78 C2.86 7.78, 2.86 7.78, 2.86 7.78 M2.86 7.78 C2.86 7.78, 2.86 7.78, 2.86 7.78 M4.3 18.32 C9.55 13.65, 11.55 7.94, 20.05 0.2 M4.3 18.32 C8.02 15.04, 11 10.01, 20.05 0.2 M3.78 31.11 C8.56 25.52, 16.12 18.73, 30.68 0.17 M3.78 31.11 C12.84 20.99, 22.43 10.71, 30.68 0.17 M3.91 43.15 C15.07 30.52, 26.01 19.98, 41.31 0.13 M3.91 43.15 C15.57 27.91, 28.86 13.53, 41.31 0.13 M4.05 55.19 C18.75 41.43, 30.48 24.51, 51.94 0.1 M4.05 55.19 C22.19 35.4, 39.16 15.17, 51.94 0.1 M4.18 67.23 C20.89 49.51, 33.69 32.21, 62.57 0.06 M4.18 67.23 C19.98 49.58, 36.63 31.18, 62.57 0.06 M3.66 80.03 C28.6 51.69, 52.98 23.36, 69.26 4.56 M3.66 80.03 C27.07 53.82, 50.99 25.34, 69.26 4.56 M3.79 92.07 C29.48 57.98, 58.99 26.36, 77.92 6.79 M3.79 92.07 C21.41 73.08, 39.19 53.54, 77.92 6.79 M3.27 104.87 C24 82.76, 43.65 56.07, 81.99 14.3 M3.27 104.87 C22.91 79.5, 44.78 56.98, 81.99 14.3 M5.37 114.64 C22.88 92.97, 42.12 72.17, 84.09 24.08 M5.37 114.64 C29.38 88.23, 51.84 60.71, 84.09 24.08 M10.09 121.4 C35.13 94.39, 59.73 62.27, 84.23 36.12 M10.09 121.4 C29.19 98.08, 50.02 73.16, 84.23 36.12 M18.1 124.38 C40.53 98.81, 62.78 74.05, 84.36 48.16 M18.1 124.38 C40.97 96.28, 65.41 68.7, 84.36 48.16 M28.73 124.35 C45.82 106.13, 59.87 87.64, 84.49 60.2 M28.73 124.35 C39.85 112.55, 50.11 97.95, 84.49 60.2 M39.36 124.32 C58.04 103.78, 72.03 86.32, 83.97 73 M39.36 124.32 C56.4 104.32, 72.89 85.24, 83.97 73 M49.99 124.28 C55.83 115.42, 62.72 106.91, 84.1 85.04 M49.99 124.28 C61.6 112.81, 70.23 101.26, 84.1 85.04 M61.28 123.49 C65.94 115.65, 72.98 109.86, 84.24 97.08 M61.28 123.49 C68.67 115.25, 74.83 107.85, 84.24 97.08 M5.35 117.31 C5.35 117.31, 5.35 117.31, 5.35 117.31 M5.35 117.31 C5.35 117.31, 5.35 117.31, 5.35 117.31 M18.14 117.83 C13.69 114.71, 9.79 110.16, 5.31 106.68 M18.14 117.83 C14.03 113.67, 9.18 108.69, 5.31 106.68 M30.94 118.36 C24.51 112.4, 21.21 110.33, 5.28 96.05 M30.94 118.36 C23.55 111.87, 17.67 106.8, 5.28 96.05 M42.98 118.22 C34.32 110.22, 22.42 102.75, 5.25 85.42 M42.98 118.22 C34.57 110.95, 25.97 103.76, 5.25 85.42 M55.02 118.09 C42.2 106.89, 27.59 91.97, 5.21 74.79 M55.02 118.09 C43.18 106.84, 31.68 96.67, 5.21 74.79 M69.33 119.93 C51.47 101, 30.27 84.69, 5.18 64.16 M69.33 119.93 C46.08 99.51, 21.9 79.24, 5.18 64.16 M76.08 115.2 C57.56 99.63, 39.69 86.02, 5.14 53.53 M76.08 115.2 C50.12 90.6, 21.46 67.44, 5.14 53.53 M79.82 107.85 C62.63 93.57, 47.89 77.72, 5.11 42.9 M79.82 107.85 C56.34 86.91, 32.74 66.76, 5.11 42.9 M84.32 101.16 C55.29 75, 25.65 47.04, 5.07 32.27 M84.32 101.16 C55.5 75.92, 26.51 50.65, 5.07 32.27 M84.28 90.53 C64.46 73.49, 41.87 52.77, 5.79 22.3 M84.28 90.53 C67.51 75.64, 50.26 61.33, 5.79 22.3 M84.25 79.9 C54.24 57.34, 27.96 32.51, 4.25 10.35 M84.25 79.9 C62.53 62.14, 41.58 43.35, 4.25 10.35 M84.97 69.92 C64.23 49.66, 41.66 32.16, 7.23 2.35 M84.97 69.92 C61.76 49.63, 38.86 29.02, 7.23 2.35 M84.93 59.29 C60.29 37.41, 35.59 15.03, 13.24 -3.03 M84.93 59.29 C55.91 35.97, 28.08 9.84, 13.24 -3.03 M84.9 48.66 C68.97 36.43, 52.39 20.62, 23.77 -4.48 M84.9 48.66 C60.25 28.46, 36.9 7.96, 23.77 -4.48 M84.87 38.03 C68.83 21.99, 50.88 8.53, 35.81 -4.61 M84.87 38.03 C69.71 24.35, 53.04 9.05, 35.81 -4.61 M84.83 27.4 C72.54 16.34, 60.01 6.93, 48.6 -4.09 M84.83 27.4 C71.54 14.67, 58.27 2.91, 48.6 -4.09 M84.04 16.12 C78.1 10.03, 71.1 3.68, 65.17 -0.29 M84.04 16.12 C78.59 11.42, 73.82 8.17, 65.17 -0.29" stroke="#e64980" stroke-width="1" fill="none"></path><path d="M20.04 0 M20.04 0 C30.73 -0.32, 42.48 -0.35, 60.12 0 M20.04 0 C35.22 -1.11, 48.31 0.73, 60.12 0 M60.12 0 C74.99 1.08, 79.26 6.99, 80.16 20.04 M60.12 0 C73.86 1.48, 78.02 8.88, 80.16 20.04 M80.16 20.04 C80.48 43.54, 81.34 71.11, 80.16 101.99 M80.16 20.04 C79.5 45.66, 79.76 71.32, 80.16 101.99 M80.16 101.99 C80.64 115.59, 72.69 121.93, 60.12 122.03 M80.16 101.99 C80.35 113.83, 74.09 122, 60.12 122.03 M60.12 122.03 C47.2 121.31, 32.04 121.68, 20.04 122.03 M60.12 122.03 C51.48 121.86, 41.99 122.46, 20.04 122.03 M20.04 122.03 C8.62 122.06, 1.65 115.29, 0 101.99 M20.04 122.03 C6.98 123.74, 0.77 115.47, 0 101.99 M0 101.99 C0.14 69.67, -1.56 40.25, 0 20.04 M0 101.99 C0.35 76.12, -0.27 49.83, 0 20.04 M0 20.04 C1.95 5.96, 6.53 1.63, 20.04 0 M0 20.04 C-0.14 7.63, 6.91 -1.38, 20.04 0" stroke="#343a40" stroke-width="2" fill="none"></path></g><g transform="translate(229.79770747089856 220.05656284397256) rotate(0 34.28996276855469 12.5)"><text x="0" y="0" font-family="Virgil, Segoe UI Emoji" font-size="20px" fill="#343a40" text-anchor="start" style="white-space: pre;" direction="ltr" dominant-baseline="text-before-edge">runtime</text></g><g transform="translate(627.1145878049698 531.713177611441) rotate(0 53.87993621826172 12.5)"><text x="0" y="0" font-family="Virgil, Segoe UI Emoji" font-size="20px" fill="#343a40" text-anchor="start" style="white-space: pre;" direction="ltr" dominant-baseline="text-before-edge">platform Z</text></g><g stroke-linecap="round"><g transform="translate(677.3702482602079 507.91386297990266) rotate(0 -0.012598921651942874 -14.669339462394078)"><path d="M0.24 0.16 C0.37 -4.85, 1 -24.57, 1.08 -29.5 M-1.1 -0.8 C-1.05 -5.67, 0.47 -23.47, 0.69 -28.02" stroke="#343a40" stroke-width="1" fill="none"></path></g></g><mask></mask><g stroke-linecap="round" transform="translate(634.0189430008751 438.5580190157155) rotate(0 41.41805165965559 24.049191286251585)"><path d="M3.2 2.78 C3.2 2.78, 3.2 2.78, 3.2 2.78 M3.2 2.78 C3.2 2.78, 3.2 2.78, 3.2 2.78 M4.65 13.31 C9.07 9.6, 11.07 4.89, 14.49 1.99 M4.65 13.31 C6.73 9.76, 10.67 6.54, 14.49 1.99 M4.78 25.35 C10.73 19.59, 12.06 16.15, 25.12 1.96 M4.78 25.35 C13.05 15.71, 20.85 7.88, 25.12 1.96 M2.29 40.41 C12.42 29.92, 23.33 17.27, 35.75 1.92 M2.29 40.41 C8.9 31.66, 16.35 25.27, 35.75 1.92 M6.36 47.93 C19.27 32.08, 32.39 18.87, 46.38 1.89 M6.36 47.93 C15.02 37.68, 26.25 25.01, 46.38 1.89 M15.02 50.16 C25.55 41.21, 32.79 29.97, 57.01 1.86 M15.02 50.16 C32.13 30.88, 47.02 12.01, 57.01 1.86 M25.65 50.12 C41.53 32.65, 55.99 10.89, 67.64 1.82 M25.65 50.12 C37.93 36.36, 50.17 21.47, 67.64 1.82 M35.62 50.84 C49.95 34.36, 65.78 20.24, 78.27 1.79 M35.62 50.84 C44.49 39.69, 54.82 27.58, 78.27 1.79 M46.25 50.81 C58.26 37.78, 70.08 24.33, 84.31 7.03 M46.25 50.81 C57.98 36.54, 70.11 24.39, 84.31 7.03 M56.88 50.77 C65.49 40.84, 74.47 27.51, 88.37 14.55 M56.88 50.77 C65.55 39.82, 74 30.79, 88.37 14.55 M67.51 50.74 C72.4 41.54, 78.57 37.49, 88.51 26.59 M67.51 50.74 C72.11 45.57, 77.13 40.45, 88.51 26.59" stroke="#38d9a9" stroke-width="1" fill="none"></path><path d="M12.02 0 M12.02 0 C24.76 1.34, 40.86 1.82, 70.81 0 M12.02 0 C27.75 -0.77, 42.13 -1.32, 70.81 0 M70.81 0 C80.54 -1.12, 81.2 3.59, 82.84 12.02 M70.81 0 C79.13 1.13, 83.66 4.08, 82.84 12.02 M82.84 12.02 C83.98 18.13, 82.5 21.24, 82.84 36.07 M82.84 12.02 C83.56 19.2, 82.54 25.42, 82.84 36.07 M82.84 36.07 C80.84 45.73, 76.98 47.97, 70.81 48.1 M82.84 36.07 C82.89 42.65, 76.54 48.63, 70.81 48.1 M70.81 48.1 C58.17 47.06, 40.8 49, 12.02 48.1 M70.81 48.1 C52 48.41, 32.76 47.23, 12.02 48.1 M12.02 48.1 C2.8 46.24, 1.29 43.63, 0 36.07 M12.02 48.1 C5.97 46.47, 2.15 44.33, 0 36.07 M0 36.07 C-1.98 28.27, -0.37 21.48, 0 12.02 M0 36.07 C1.05 26.35, -0.47 18.32, 0 12.02 M0 12.02 C1.92 5.05, 3.53 1.59, 12.02 0 M0 12.02 C-1.87 2.12, 2.09 0.61, 12.02 0" stroke="#343a40" stroke-width="2" fill="none"></path></g><g stroke-linecap="round" transform="translate(632.2375214241159 362.68914007394085) rotate(0 41.418051659655475 34.737720746807895)"><path d="M4.62 4.02 C4.62 4.02, 4.62 4.02, 4.62 4.02 M4.62 4.02 C4.62 4.02, 4.62 4.02, 4.62 4.02 M4.1 16.81 C6.62 12.47, 12.08 6.76, 17.88 0.97 M4.1 16.81 C9.78 10.77, 13.28 6.1, 17.88 0.97 M4.23 28.86 C11.66 19.57, 23.32 8.94, 28.51 0.93 M4.23 28.86 C12.15 20.82, 19.19 11.75, 28.51 0.93 M4.37 40.9 C11.74 33.03, 17.87 23.29, 39.14 0.9 M4.37 40.9 C14.84 30.31, 24.6 18.36, 39.14 0.9 M1.22 56.71 C17.3 39.47, 33.42 19.53, 49.77 0.86 M1.22 56.71 C15.44 40.58, 26.75 27.18, 49.77 0.86 M4.63 64.98 C19.23 47.68, 37.47 29.62, 60.4 0.83 M4.63 64.98 C20.72 45, 39.44 26.04, 60.4 0.83 M11.98 68.72 C30.05 43.74, 51.65 21, 70.37 1.55 M11.98 68.72 C28.43 48.98, 45.57 29.79, 70.37 1.55 M18.02 73.97 C34.99 58.11, 46.72 41.51, 78.38 4.53 M18.02 73.97 C41.67 46.58, 65.9 18.55, 78.38 4.53 M28.65 73.93 C40.98 60.07, 54.67 42.32, 83.1 11.29 M28.65 73.93 C45.27 56.07, 60.98 37.8, 83.1 11.29 M39.28 73.9 C53.32 54.91, 68.53 41.57, 85.86 20.31 M39.28 73.9 C50.23 61.57, 62.53 47.98, 85.86 20.31 M49.91 73.86 C60.78 61.68, 73.36 43.96, 85.99 32.35 M49.91 73.86 C57.97 65.06, 64.04 56.98, 85.99 32.35 M60.54 73.83 C70.65 66.26, 75.98 56.32, 86.13 44.39 M60.54 73.83 C69.44 62.29, 79.83 51.98, 86.13 44.39 M4.34 65.13 C4.34 65.13, 4.34 65.13, 4.34 65.13 M4.34 65.13 C4.34 65.13, 4.34 65.13, 4.34 65.13 M16.38 64.99 C12.33 60.67, 6.43 55.7, 2.79 53.19 M16.38 64.99 C11.32 59.91, 5.22 56.18, 2.79 53.19 M29.17 65.52 C24.32 58.73, 14.89 55.03, 2.76 42.56 M29.17 65.52 C21.04 58.32, 12.54 49.52, 2.76 42.56 M41.21 65.38 C31.85 59.33, 21.67 51.48, 2.72 31.93 M41.21 65.38 C29.11 54.03, 16.89 44.45, 2.72 31.93 M53.25 65.25 C41.58 55.59, 26.15 41.4, 2.69 21.3 M53.25 65.25 C34.25 50.36, 15.33 32.8, 2.69 21.3 M67.56 67.09 C53.85 55.74, 38.64 41.94, 2.65 10.67 M67.56 67.09 C46.18 47.68, 26.12 31.59, 2.65 10.67 M76.58 64.33 C54.82 45.17, 32.48 27.26, 5.64 2.66 M76.58 64.33 C53.47 44.48, 32.72 25.22, 5.64 2.66 M83.34 59.6 C65.03 44.03, 49.37 29.53, 12.4 -2.07 M83.34 59.6 C59.95 39.33, 34.89 18.23, 12.4 -2.07 M86.32 51.6 C64.25 36.03, 46.85 15.43, 21.42 -4.82 M86.32 51.6 C65.31 33.23, 43.88 16.14, 21.42 -4.82 M86.29 40.97 C67.23 26.77, 51.55 11.87, 33.46 -4.96 M86.29 40.97 C72.11 29.9, 58.21 15.96, 33.46 -4.96 M86.25 30.34 C79.14 21.05, 69.62 17.17, 46.25 -4.43 M86.25 30.34 C78.21 22.92, 69.27 13.87, 46.25 -4.43 M83.2 17.08 C75.69 9.91, 66.09 2.99, 58.3 -4.57 M83.2 17.08 C74.4 10.01, 64.98 1.28, 58.3 -4.57" stroke="#ff8787" stroke-width="1" fill="none"></path><path d="M17.37 0 M17.37 0 C34.3 2.43, 53.57 0.67, 65.47 0 M17.37 0 C30.93 0.79, 45.43 -0.67, 65.47 0 M65.47 0 C77.96 1.19, 84.65 5.3, 82.84 17.37 M65.47 0 C77.97 -0.24, 83.39 4.3, 82.84 17.37 M82.84 17.37 C82.03 23.91, 81.35 34.94, 82.84 52.11 M82.84 17.37 C82.11 26.25, 82.6 35.01, 82.84 52.11 M82.84 52.11 C81.23 63.18, 75.21 67.5, 65.47 69.48 M82.84 52.11 C83.91 64.85, 77.47 69.87, 65.47 69.48 M65.47 69.48 C47.72 69.38, 33.1 68.25, 17.37 69.48 M65.47 69.48 C45.72 70.15, 28.23 70.69, 17.37 69.48 M17.37 69.48 C5.21 69.34, -0.3 62.1, 0 52.11 M17.37 69.48 C7.65 68.3, 0.34 61.63, 0 52.11 M0 52.11 C-0.04 38.28, 1.51 25.96, 0 17.37 M0 52.11 C-0.7 43.51, 1 35.45, 0 17.37 M0 17.37 C-1.24 6.79, 6.92 -0.27, 17.37 0 M0 17.37 C1.03 7.68, 7.21 1.83, 17.37 0" stroke="#343a40" stroke-width="2" fill="none"></path></g><g stroke-linecap="round" transform="translate(633.5735876066852 218.05792617386197) rotate(0 40.08198547708594 68.58473070523604)"><path d="M2.86 7.78 C2.86 7.78, 2.86 7.78, 2.86 7.78 M2.86 7.78 C2.86 7.78, 2.86 7.78, 2.86 7.78 M4.3 18.32 C9.57 11.65, 16.56 3.79, 20.05 0.2 M4.3 18.32 C7.43 14.28, 13.07 9.82, 20.05 0.2 M3.78 31.11 C12.73 23.16, 18.41 15.68, 30.68 0.17 M3.78 31.11 C9.93 23.83, 15.07 16.58, 30.68 0.17 M3.91 43.15 C16.2 26.95, 31.95 10.13, 41.31 0.13 M3.91 43.15 C11.66 34.15, 19.37 25.21, 41.31 0.13 M4.05 55.19 C16.63 40.14, 30.73 22.05, 51.94 0.1 M4.05 55.19 C20.51 35.85, 38.8 15.61, 51.94 0.1 M4.18 67.23 C28.86 42.16, 49.84 16.79, 62.57 0.06 M4.18 67.23 C21.07 50.05, 36.24 31.39, 62.57 0.06 M3.66 80.03 C28.47 51.14, 52.59 24.05, 69.26 4.56 M3.66 80.03 C25.5 55.15, 46.06 31.34, 69.26 4.56 M3.79 92.07 C21.32 70.86, 44.09 44.94, 77.92 6.79 M3.79 92.07 C32.46 58.91, 59.74 27.04, 77.92 6.79 M3.92 104.11 C30.37 71.96, 56.27 43.29, 81.99 14.3 M3.92 104.11 C19.3 86.29, 35.27 67.48, 81.99 14.3 M2.09 118.42 C29.95 88.92, 56.94 55.2, 84.09 24.08 M2.09 118.42 C21.33 96.9, 40.22 74.47, 84.09 24.08 M4.19 128.19 C20.9 105.65, 38.46 86.91, 84.23 36.12 M4.19 128.19 C24.45 103.77, 46.89 78.51, 84.23 36.12 M8.91 134.95 C35.3 103.23, 65.46 70.79, 84.36 48.16 M8.91 134.95 C29.57 112.56, 47.5 90.36, 84.36 48.16 M16.92 137.93 C37.78 111.41, 58.39 87.23, 84.49 60.2 M16.92 137.93 C40.49 109.97, 65.34 81.11, 84.49 60.2 M27.55 137.9 C46.72 112.26, 70.56 88.57, 83.97 73 M27.55 137.9 C43.11 119.43, 60.12 100.86, 83.97 73 M37.52 138.62 C51.44 121.73, 68.76 103.69, 84.1 85.04 M37.52 138.62 C50.62 123.31, 61.58 108.67, 84.1 85.04 M48.15 138.59 C59.98 125.02, 74.77 107.7, 84.24 97.08 M48.15 138.59 C58.72 126.15, 69.7 114.55, 84.24 97.08 M58.78 138.55 C63.63 130.04, 72.08 126.14, 84.37 109.12 M58.78 138.55 C67.05 127.16, 76.05 117.88, 84.37 109.12" stroke="#228be6" stroke-width="1" fill="none"></path><path d="M20.04 0 M20.04 0 C29.05 -0.57, 39.73 -1.13, 60.12 0 M20.04 0 C28.92 1.34, 38.43 0.93, 60.12 0 M60.12 0 C72.03 0.45, 80.53 6.65, 80.16 20.04 M60.12 0 C75.17 0.45, 78.1 7.39, 80.16 20.04 M80.16 20.04 C79.98 38.22, 81.65 59.17, 80.16 117.13 M80.16 20.04 C79.13 44.79, 78.95 69.42, 80.16 117.13 M80.16 117.13 C80.76 130.88, 72.16 137.27, 60.12 137.17 M80.16 117.13 C80.41 130.43, 74.17 134.96, 60.12 137.17 M60.12 137.17 C44.87 138.83, 28.73 136.93, 20.04 137.17 M60.12 137.17 C50.18 138.18, 40.12 136.37, 20.04 137.17 M20.04 137.17 C7 136.56, 0.07 129.84, 0 117.13 M20.04 137.17 C7.99 139.19, 0.49 132.23, 0 117.13 M0 117.13 C2.46 82.07, 2.07 48.3, 0 20.04 M0 117.13 C-1.36 89.04, 0.19 62.3, 0 20.04 M0 20.04 C1.74 5.58, 7.15 -0.48, 20.04 0 M0 20.04 C-0.52 7.25, 6.55 -1.21, 20.04 0" stroke="#343a40" stroke-width="2" fill="none"></path></g><g transform="translate(880.5292013712905 531.713177611441) rotate(0 53.36993408203125 12.5)"><text x="0" y="0" font-family="Virgil, Segoe UI Emoji" font-size="20px" fill="#343a40" text-anchor="start" style="white-space: pre;" direction="ltr" dominant-baseline="text-before-edge">platform W</text></g><g stroke-linecap="round"><g transform="translate(928.2988995283714 508.295634410057) rotate(0 -0.49156238799400853 -15.051110892548422)"><path d="M0.14 1.04 C0.34 -3.7, 0.23 -24.05, 0.21 -29.15 M-1.24 0.54 C-1.1 -4.51, -0.71 -26.34, -0.62 -31.14" stroke="#343a40" stroke-width="1" fill="none"></path></g></g><mask></mask><g stroke-linecap="round" transform="translate(887.2048757802471 439.4487298040953) rotate(0 41.418051659655475 24.049191286251585)"><path d="M3.2 2.78 C3.2 2.78, 3.2 2.78, 3.2 2.78 M3.2 2.78 C3.2 2.78, 3.2 2.78, 3.2 2.78 M4.65 13.31 C5.77 11.79, 7.9 6.85, 14.49 1.99 M4.65 13.31 C7.05 10.54, 9.31 7.12, 14.49 1.99 M4.78 25.35 C10.99 19.42, 16.09 14.23, 25.12 1.96 M4.78 25.35 C12.28 15.83, 20.17 8.26, 25.12 1.96 M2.29 40.41 C9.24 32.75, 19.92 22.67, 35.75 1.92 M2.29 40.41 C10.06 32.08, 18.21 23.44, 35.75 1.92 M6.36 47.93 C19.47 34.04, 29.36 19.37, 46.38 1.89 M6.36 47.93 C14.68 37.99, 24.13 27.43, 46.38 1.89 M15.02 50.16 C27.85 33.8, 45.93 16.41, 57.01 1.86 M15.02 50.16 C31.21 32.2, 47 13.65, 57.01 1.86 M25.65 50.12 C38.86 37.71, 48.54 22.37, 67.64 1.82 M25.65 50.12 C33.66 39.55, 42.71 29.97, 67.64 1.82 M35.62 50.84 C46.07 38.61, 60.63 24.03, 78.27 1.79 M35.62 50.84 C48.32 37.85, 60.32 23.14, 78.27 1.79 M46.25 50.81 C58.37 37.65, 67.87 22.57, 84.31 7.03 M46.25 50.81 C57.07 39, 65.98 26.75, 84.31 7.03 M56.88 50.77 C62.87 43.49, 69.89 35.81, 88.37 14.55 M56.88 50.77 C63.78 43.87, 70.33 34.06, 88.37 14.55 M67.51 50.74 C71.97 43.72, 79.83 38.08, 88.51 26.59 M67.51 50.74 C73.91 43.19, 79.36 36.24, 88.51 26.59" stroke="#38d9a9" stroke-width="1" fill="none"></path><path d="M12.02 0 M12.02 0 C23.94 -1.79, 39.44 1.02, 70.81 0 M12.02 0 C29.09 0.35, 47.91 -0.08, 70.81 0 M70.81 0 C78.95 -1.01, 84.43 3.52, 82.84 12.02 M70.81 0 C77.96 -2.21, 82.18 5.6, 82.84 12.02 M82.84 12.02 C81.21 18.29, 82.35 27.92, 82.84 36.07 M82.84 12.02 C82.85 18.03, 83.29 25.11, 82.84 36.07 M82.84 36.07 C83.44 42.24, 78.77 48.36, 70.81 48.1 M82.84 36.07 C83.96 45.92, 77.19 46.44, 70.81 48.1 M70.81 48.1 C58.17 48.52, 43.35 47.56, 12.02 48.1 M70.81 48.1 C52.54 47.79, 34.8 48.85, 12.02 48.1 M12.02 48.1 C5.06 46.17, 0.79 44.56, 0 36.07 M12.02 48.1 C6.21 50.21, -1.96 46.18, 0 36.07 M0 36.07 C-1.3 29.96, 1.95 25.47, 0 12.02 M0 36.07 C-0.72 29.27, -0.17 21.96, 0 12.02 M0 12.02 C1.22 5.74, 5.28 1.99, 12.02 0 M0 12.02 C0.07 4.05, 5.15 0.28, 12.02 0" stroke="#343a40" stroke-width="2" fill="none"></path></g><g stroke-linecap="round" transform="translate(885.423454203488 363.57985086232065) rotate(0 41.418051659655475 34.737720746807895)"><path d="M4.62 4.02 C4.62 4.02, 4.62 4.02, 4.62 4.02 M4.62 4.02 C4.62 4.02, 4.62 4.02, 4.62 4.02 M4.1 16.81 C7.92 8.83, 13.81 4.39, 17.88 0.97 M4.1 16.81 C8.25 10.94, 12.18 6.51, 17.88 0.97 M4.23 28.86 C11.02 22.56, 17.02 15.27, 28.51 0.93 M4.23 28.86 C14.15 18.39, 22.19 7.12, 28.51 0.93 M4.37 40.9 C14.67 31.24, 21.81 18.07, 39.14 0.9 M4.37 40.9 C17.95 26.4, 30.65 9.99, 39.14 0.9 M1.22 56.71 C12.9 40.57, 25.26 28.62, 49.77 0.86 M1.22 56.71 C15.67 40.4, 29.18 24.9, 49.77 0.86 M4.63 64.98 C20.87 48.41, 34.5 34.03, 60.4 0.83 M4.63 64.98 C17.49 50.08, 31.25 33.52, 60.4 0.83 M11.98 68.72 C26.69 49.33, 43.4 31.09, 70.37 1.55 M11.98 68.72 C28.19 50.5, 43.96 31.63, 70.37 1.55 M18.02 73.97 C33.56 57.7, 44.72 42.65, 78.38 4.53 M18.02 73.97 C31.78 57.62, 44.71 42.64, 78.38 4.53 M28.65 73.93 C43.51 53.29, 61.53 34.19, 83.1 11.29 M28.65 73.93 C41.71 56.99, 56.07 41.36, 83.1 11.29 M39.28 73.9 C53.41 57.83, 67.28 41.52, 85.86 20.31 M39.28 73.9 C49.08 60.9, 59.23 50.81, 85.86 20.31 M49.91 73.86 C65.24 58.42, 77.44 41.95, 85.99 32.35 M49.91 73.86 C60.38 60.98, 71.89 47.53, 85.99 32.35 M60.54 73.83 C68.9 66.41, 75.76 58.67, 86.13 44.39 M60.54 73.83 C68.5 65.43, 74.86 57.03, 86.13 44.39 M4.34 65.13 C4.34 65.13, 4.34 65.13, 4.34 65.13 M4.34 65.13 C4.34 65.13, 4.34 65.13, 4.34 65.13 M16.38 64.99 C11.05 61.29, 7.61 57.02, 2.79 53.19 M16.38 64.99 C14 63.28, 10.1 59.46, 2.79 53.19 M29.17 65.52 C24.17 60.47, 16.9 54.15, 2.76 42.56 M29.17 65.52 C20.83 58.14, 13.12 52.08, 2.76 42.56 M41.21 65.38 C28.43 55.65, 16.22 40.23, 2.72 31.93 M41.21 65.38 C26.27 51.72, 10.98 40.27, 2.72 31.93 M53.25 65.25 C37.2 51.54, 22.83 39.57, 2.69 21.3 M53.25 65.25 C43.3 57.72, 32.38 47.77, 2.69 21.3 M67.56 67.09 C44.5 47.49, 23.82 28.52, 2.65 10.67 M67.56 67.09 C44.54 46.35, 20.4 24.67, 2.65 10.67 M76.58 64.33 C49.46 42.65, 23.35 17.37, 5.64 2.66 M76.58 64.33 C57.53 47.23, 37.73 30.09, 5.64 2.66 M83.34 59.6 C64.51 44.19, 44.6 27.55, 12.4 -2.07 M83.34 59.6 C66.09 45.62, 51.23 31.42, 12.4 -2.07 M86.32 51.6 C68.5 35.86, 50.7 18.78, 21.42 -4.82 M86.32 51.6 C60.13 28.49, 36.49 8.68, 21.42 -4.82 M86.29 40.97 C73.97 28.34, 60.12 16.68, 33.46 -4.96 M86.29 40.97 C74.37 29.53, 59.88 18.51, 33.46 -4.96 M86.25 30.34 C75.73 17.91, 60.63 10.88, 46.25 -4.43 M86.25 30.34 C69.45 16.12, 54.47 2.44, 46.25 -4.43 M83.2 17.08 C75.36 9.12, 66.91 2.56, 58.3 -4.57 M83.2 17.08 C76.88 12.72, 71.15 7.21, 58.3 -4.57" stroke="#ff8787" stroke-width="1" fill="none"></path><path d="M17.37 0 M17.37 0 C33.55 0.4, 51.24 -1.24, 65.47 0 M17.37 0 C32.24 0.34, 46.7 0.18, 65.47 0 M65.47 0 C75.7 -0.91, 81.55 6.78, 82.84 17.37 M65.47 0 C78.3 2.17, 82.22 3.67, 82.84 17.37 M82.84 17.37 C84.53 31.09, 84.66 42.84, 82.84 52.11 M82.84 17.37 C83.02 31.08, 82.04 45, 82.84 52.11 M82.84 52.11 C83.02 63.66, 78.96 70.18, 65.47 69.48 M82.84 52.11 C85.04 61.56, 77.48 69.98, 65.47 69.48 M65.47 69.48 C56.48 68.87, 43.49 69.49, 17.37 69.48 M65.47 69.48 C53.36 69.78, 41.06 69.32, 17.37 69.48 M17.37 69.48 C5.34 69.58, -1.72 62.23, 0 52.11 M17.37 69.48 C5.12 69.49, 0.17 65.82, 0 52.11 M0 52.11 C0.6 43.94, 1.12 36.18, 0 17.37 M0 52.11 C0.02 40.25, 0.29 29.25, 0 17.37 M0 17.37 C-0.59 4.34, 7.67 -1.55, 17.37 0 M0 17.37 C-1.67 6.67, 3.63 1.81, 17.37 0" stroke="#343a40" stroke-width="2" fill="none"></path></g><g stroke-linecap="round" transform="translate(886.7595203860573 327.6153531445637) rotate(0 40.08198547708594 14.25137261407508)"><path d="M1.9 1.65 C1.9 1.65, 1.9 1.65, 1.9 1.65 M1.9 1.65 C1.9 1.65, 1.9 1.65, 1.9 1.65 M4.65 10.67 C6.59 7.92, 9.74 5.11, 11.21 3.12 M4.65 10.67 C6.36 8.27, 8.28 6.5, 11.21 3.12 M2.16 25.73 C8.94 19.01, 15.04 12.89, 21.84 3.09 M2.16 25.73 C5.6 20.35, 9.87 15.48, 21.84 3.09 M7.54 31.73 C15.5 19.49, 27.96 9.56, 31.82 3.81 M7.54 31.73 C16.44 20.69, 25.17 11.24, 31.82 3.81 M18.17 31.7 C23.58 25.6, 31.79 15.93, 42.45 3.77 M18.17 31.7 C25.82 23.15, 32.24 13.96, 42.45 3.77 M28.8 31.66 C37.66 24.06, 42.03 14.96, 53.08 3.74 M28.8 31.66 C37.49 21.15, 46.08 11.99, 53.08 3.74 M39.43 31.63 C47.09 22.35, 57.67 9.53, 63.71 3.71 M39.43 31.63 C44.89 24.44, 50.16 17.78, 63.71 3.71 M50.06 31.6 C58.31 20.96, 66.1 12.46, 76.96 0.65 M50.06 31.6 C59.17 21.16, 68.41 10.69, 76.96 0.65 M60.7 31.56 C67.2 22.81, 73.94 16.59, 82.35 6.66 M60.7 31.56 C66.21 24.78, 73.25 17.25, 82.35 6.66 M73.29 29.26 C75.33 26.74, 78.35 22.36, 82.48 18.7 M73.29 29.26 C76.66 25.77, 81.07 20.76, 82.48 18.7" stroke="#228be6" stroke-width="1" fill="none"></path><path d="M7.13 0 M7.13 0 C25.22 -0.64, 43.55 -0.07, 73.04 0 M7.13 0 C24.61 -0.36, 43.47 -0.8, 73.04 0 M73.04 0 C75.96 0.63, 81.15 2.35, 80.16 7.13 M73.04 0 C79.96 -0.56, 79.03 2.86, 80.16 7.13 M80.16 7.13 C79.41 13.62, 79.78 17.3, 80.16 21.38 M80.16 7.13 C80.14 9.79, 80.51 12.39, 80.16 21.38 M80.16 21.38 C79.15 25.72, 79.11 27.72, 73.04 28.5 M80.16 21.38 C81.54 25.03, 77.48 27.87, 73.04 28.5 M73.04 28.5 C49.36 28.64, 29.64 29.68, 7.13 28.5 M73.04 28.5 C47.35 27.67, 23.35 28.56, 7.13 28.5 M7.13 28.5 C2.59 28.47, -0.75 26.33, 0 21.38 M7.13 28.5 C3.44 28.14, -0.12 25.63, 0 21.38 M0 21.38 C-1.5 17.06, 0.22 12.97, 0 7.13 M0 21.38 C-0.45 15.89, 0 9.76, 0 7.13 M0 7.13 C-0.84 4.35, 2.33 -0.53, 7.13 0 M0 7.13 C1.91 1.08, 1.17 -0.52, 7.13 0" stroke="#343a40" stroke-width="2" fill="none"></path></g><g transform="translate(379.31996935583663 531.713177611441) rotate(0 51.06993865966797 12.5)"><text x="0" y="0" font-family="Virgil, Segoe UI Emoji" font-size="20px" fill="#343a40" text-anchor="start" style="white-space: pre;" direction="ltr" dominant-baseline="text-before-edge">platform Y</text></g><g stroke-linecap="round"><g transform="translate(427.12024709094544 507.35687327248206) rotate(0 -0.32049951252372466 -14.112349754973508)"><path d="M0.51 -1.05 C0.68 -5.84, 0.13 -24.59, -0.09 -29.24 M-0.69 1.02 C-0.58 -3.51, -1.47 -22.28, -1.08 -27.63" stroke="#343a40" stroke-width="1" fill="none"></path></g></g><mask></mask><g stroke-linecap="round" transform="translate(387.9586965285408 439.11266362152566) rotate(0 41.41805165965553 24.049191286251585)"><path d="M3.2 2.78 C3.2 2.78, 3.2 2.78, 3.2 2.78 M3.2 2.78 C3.2 2.78, 3.2 2.78, 3.2 2.78 M4.65 13.31 C7.18 10.11, 9.62 8.44, 14.49 1.99 M4.65 13.31 C8.23 9.74, 10.01 7.2, 14.49 1.99 M4.78 25.35 C12.2 17.36, 19.64 7.55, 25.12 1.96 M4.78 25.35 C11.35 17.52, 17.95 10.49, 25.12 1.96 M2.29 40.41 C10.63 33.13, 16.72 20.81, 35.75 1.92 M2.29 40.41 C8.51 33.25, 17.04 24.97, 35.75 1.92 M6.36 47.93 C17.99 33.85, 26.66 22.37, 46.38 1.89 M6.36 47.93 C20.85 32.54, 33.55 17.33, 46.38 1.89 M15.02 50.16 C28.83 33.72, 46.81 12.59, 57.01 1.86 M15.02 50.16 C27.55 33.46, 43.42 18.35, 57.01 1.86 M25.65 50.12 C41.33 35.23, 53.31 17.91, 67.64 1.82 M25.65 50.12 C37.21 37.91, 47.98 24.33, 67.64 1.82 M35.62 50.84 C52.56 31.8, 68 14.28, 78.27 1.79 M35.62 50.84 C51.31 32.4, 68.55 13.96, 78.27 1.79 M46.25 50.81 C60.43 36.24, 74.58 18.5, 84.31 7.03 M46.25 50.81 C60.35 34.5, 75.93 16.24, 84.31 7.03 M56.88 50.77 C66.95 38.64, 80.13 23.93, 88.37 14.55 M56.88 50.77 C63.54 43.08, 70.89 34.08, 88.37 14.55 M67.51 50.74 C72.41 46.84, 77.05 39.55, 88.51 26.59 M67.51 50.74 C74.23 41.8, 81.86 33.57, 88.51 26.59" stroke="#38d9a9" stroke-width="1" fill="none"></path><path d="M12.02 0 M12.02 0 C33.53 0.97, 52.7 -1.77, 70.81 0 M12.02 0 C30.94 -0.46, 50.36 -0.28, 70.81 0 M70.81 0 C77.28 0.05, 83.03 2.52, 82.84 12.02 M70.81 0 C80.63 -1.87, 81.91 2.06, 82.84 12.02 M82.84 12.02 C83.95 20.76, 84.6 28.25, 82.84 36.07 M82.84 12.02 C82.8 20.61, 82.73 28.68, 82.84 36.07 M82.84 36.07 C83.81 43.08, 79.58 49.57, 70.81 48.1 M82.84 36.07 C81.8 46.21, 78.45 45.81, 70.81 48.1 M70.81 48.1 C51.15 48.71, 32.12 46.96, 12.02 48.1 M70.81 48.1 C50.21 48.07, 28.43 49.05, 12.02 48.1 M12.02 48.1 C4.09 48.02, 1.57 44.32, 0 36.07 M12.02 48.1 C1.98 45.81, -0.86 43.96, 0 36.07 M0 36.07 C-0.66 30.66, -0.15 24.03, 0 12.02 M0 36.07 C-1.13 26.61, 0.2 18.19, 0 12.02 M0 12.02 C0.57 3.57, 3.33 -0.13, 12.02 0 M0 12.02 C-1.09 4.93, 5.05 -0.91, 12.02 0" stroke="#343a40" stroke-width="2" fill="none"></path></g><g stroke-linecap="round" transform="translate(386.17727495178167 363.243784679751) rotate(0 41.418051659655475 34.737720746807895)"><path d="M4.62 4.02 C4.62 4.02, 4.62 4.02, 4.62 4.02 M4.62 4.02 C4.62 4.02, 4.62 4.02, 4.62 4.02 M4.1 16.81 C7.65 13.69, 11.42 8.53, 17.88 0.97 M4.1 16.81 C6.35 14.1, 10.84 10.31, 17.88 0.97 M4.23 28.86 C13.16 18.06, 22.01 9.86, 28.51 0.93 M4.23 28.86 C14.46 17.71, 22.4 7.85, 28.51 0.93 M4.37 40.9 C15.2 25.37, 25.59 14.24, 39.14 0.9 M4.37 40.9 C15.67 29.5, 24.74 17.95, 39.14 0.9 M1.22 56.71 C17.49 36.42, 36.44 15.83, 49.77 0.86 M1.22 56.71 C12.61 43.34, 25.19 30.41, 49.77 0.86 M4.63 64.98 C28.73 37.15, 49.86 15.38, 60.4 0.83 M4.63 64.98 C25.4 43.61, 43.82 20.57, 60.4 0.83 M11.98 68.72 C26.62 50.12, 41.12 32.19, 70.37 1.55 M11.98 68.72 C23.21 54.72, 35.95 41.4, 70.37 1.55 M18.02 73.97 C36.31 53.25, 53.81 35.36, 78.38 4.53 M18.02 73.97 C34.53 56.27, 50 38.24, 78.38 4.53 M28.65 73.93 C41.53 58.73, 54.21 45.8, 83.1 11.29 M28.65 73.93 C46.55 53.03, 64.9 33.8, 83.1 11.29 M39.28 73.9 C53.37 57.94, 63.87 43.09, 85.86 20.31 M39.28 73.9 C52.07 58.54, 65.28 44.01, 85.86 20.31 M49.91 73.86 C58.26 63.74, 67.59 56.28, 85.99 32.35 M49.91 73.86 C57.9 64.54, 67.69 53.61, 85.99 32.35 M60.54 73.83 C68.85 63.8, 74.63 55.79, 86.13 44.39 M60.54 73.83 C66.43 66.77, 71.21 60.98, 86.13 44.39 M4.34 65.13 C4.34 65.13, 4.34 65.13, 4.34 65.13 M4.34 65.13 C4.34 65.13, 4.34 65.13, 4.34 65.13 M16.38 64.99 C13.53 62.58, 9.72 60.7, 2.79 53.19 M16.38 64.99 C12.54 62.98, 9.41 58.31, 2.79 53.19 M29.17 65.52 C20.24 58.31, 11.96 48.94, 2.76 42.56 M29.17 65.52 C20.11 57.12, 10.02 49.81, 2.76 42.56 M41.21 65.38 C29.76 53.76, 15.84 44.6, 2.72 31.93 M41.21 65.38 C29.74 55.51, 19.37 45.91, 2.72 31.93 M53.25 65.25 C33.13 46.12, 11.27 31.37, 2.69 21.3 M53.25 65.25 C40.93 54.76, 28.92 44.91, 2.69 21.3 M67.56 67.09 C46.55 49.42, 22.43 29.2, 2.65 10.67 M67.56 67.09 C50.96 52.43, 34.99 37.13, 2.65 10.67 M76.58 64.33 C57.16 49.41, 40.37 35.9, 5.64 2.66 M76.58 64.33 C60.15 49.19, 44.08 34.85, 5.64 2.66 M83.34 59.6 C70.23 48.21, 55.9 33.9, 12.4 -2.07 M83.34 59.6 C56.64 35.25, 29.59 11.61, 12.4 -2.07 M86.32 51.6 C70.34 38.17, 52.8 25.4, 21.42 -4.82 M86.32 51.6 C61.17 29.44, 36.07 8.48, 21.42 -4.82 M86.29 40.97 C64.71 25.14, 47.44 8.47, 33.46 -4.96 M86.29 40.97 C69.46 27.67, 54.61 12.6, 33.46 -4.96 M86.25 30.34 C75.41 22.13, 70.21 14.75, 46.25 -4.43 M86.25 30.34 C74.89 20.34, 62.92 8.8, 46.25 -4.43 M83.2 17.08 C74.69 7.55, 65.65 -0.36, 58.3 -4.57 M83.2 17.08 C73.91 7.87, 62.9 0.54, 58.3 -4.57" stroke="#ff8787" stroke-width="1" fill="none"></path><path d="M17.37 0 M17.37 0 C30.13 -0.32, 40.7 -2.44, 65.47 0 M17.37 0 C33.34 0.79, 49.85 0.8, 65.47 0 M65.47 0 C75.26 1.59, 81.64 7.49, 82.84 17.37 M65.47 0 C77.75 -0.33, 84.65 8.08, 82.84 17.37 M82.84 17.37 C81.71 30.47, 83.42 41.49, 82.84 52.11 M82.84 17.37 C83.14 27.91, 83.25 37.21, 82.84 52.11 M82.84 52.11 C82.63 62.77, 75.08 71.11, 65.47 69.48 M82.84 52.11 C83.84 65.01, 76.19 70.87, 65.47 69.48 M65.47 69.48 C51.24 69.84, 31.92 68.37, 17.37 69.48 M65.47 69.48 C53.23 70.21, 39.76 69.43, 17.37 69.48 M17.37 69.48 C5.54 69.62, -1.87 64.81, 0 52.11 M17.37 69.48 C5.96 68.57, 0.32 64.51, 0 52.11 M0 52.11 C-1.48 41.6, -1.26 29.07, 0 17.37 M0 52.11 C0.53 39.71, -0.01 25.98, 0 17.37 M0 17.37 C-0.19 5.31, 4.49 1.3, 17.37 0 M0 17.37 C-0.65 7.96, 4.09 -0.18, 17.37 0" stroke="#343a40" stroke-width="2" fill="none"></path></g><g stroke-linecap="round" transform="translate(387.513341134351 239.09891891240494) rotate(0 40.08198547708594 58.34155663886963)"><path d="M2.86 7.78 C2.86 7.78, 2.86 7.78, 2.86 7.78 M2.86 7.78 C2.86 7.78, 2.86 7.78, 2.86 7.78 M4.3 18.32 C8.63 13.36, 11.44 10.02, 20.05 0.2 M4.3 18.32 C9.3 13.95, 13.48 8.58, 20.05 0.2 M3.78 31.11 C12.91 22.22, 23.62 11.44, 30.68 0.17 M3.78 31.11 C9.61 24.13, 17.47 16.03, 30.68 0.17 M3.91 43.15 C16.51 27.42, 32.48 9.22, 41.31 0.13 M3.91 43.15 C17.71 27.1, 33.09 10.26, 41.31 0.13 M4.05 55.19 C15.82 41.73, 24.78 31.91, 51.94 0.1 M4.05 55.19 C18.68 39.98, 32.96 22.45, 51.94 0.1 M4.18 67.23 C26.41 44.07, 48.81 14.91, 62.57 0.06 M4.18 67.23 C18.3 49.68, 32.18 34.43, 62.57 0.06 M3.66 80.03 C24.86 53.77, 45.39 30.03, 69.26 4.56 M3.66 80.03 C26.06 55.33, 46.78 31.62, 69.26 4.56 M3.79 92.07 C21.88 73.71, 36.53 52.53, 77.92 6.79 M3.79 92.07 C26.3 66.14, 47.43 40.37, 77.92 6.79 M1.95 106.37 C30.58 75.06, 56.5 42.26, 81.99 14.3 M1.95 106.37 C34.11 71.19, 64.67 33.87, 81.99 14.3 M6.68 113.13 C31.02 82.39, 58.16 51.69, 84.09 24.08 M6.68 113.13 C34.92 81.23, 63.19 48.21, 84.09 24.08 M14.03 116.87 C41.27 88.67, 64.63 55.64, 84.23 36.12 M14.03 116.87 C34.82 93.22, 53.96 72.13, 84.23 36.12 M20.72 121.37 C42.27 95.12, 61.88 71.8, 84.36 48.16 M20.72 121.37 C33.14 106.57, 47.3 90.51, 84.36 48.16 M31.35 121.33 C50.25 99.19, 72.71 74.78, 84.49 60.2 M31.35 121.33 C49.83 99.93, 67.74 77.61, 84.49 60.2 M41.98 121.3 C54.41 106.98, 67.45 91.51, 83.97 73 M41.98 121.3 C57.72 101.88, 73.88 84.87, 83.97 73 M52.61 121.26 C64.36 106.62, 76.65 96.37, 84.1 85.04 M52.61 121.26 C62.64 110.43, 72.78 97.86, 84.1 85.04 M63.9 120.47 C68.1 112.73, 76.18 106.14, 80.3 101.61 M63.9 120.47 C70.62 113.72, 76.7 107.51, 80.3 101.61" stroke="#228be6" stroke-width="1" fill="none"></path><path d="M20.04 0 M20.04 0 C32.55 1.05, 47.13 0.97, 60.12 0 M20.04 0 C30.71 0.43, 42.78 -0.37, 60.12 0 M60.12 0 C73.1 1.17, 82.1 6.14, 80.16 20.04 M60.12 0 C74.85 -1.09, 79.85 5.11, 80.16 20.04 M80.16 20.04 C78.2 39.75, 81.36 60.33, 80.16 96.64 M80.16 20.04 C81.3 34.91, 79.54 50.79, 80.16 96.64 M80.16 96.64 C78.87 108.59, 72.63 114.91, 60.12 116.68 M80.16 96.64 C77.91 110.38, 71.46 118.2, 60.12 116.68 M60.12 116.68 C46.36 116.83, 27.64 117.47, 20.04 116.68 M60.12 116.68 C48.46 115.9, 37.75 116.35, 20.04 116.68 M20.04 116.68 C7.21 114.7, 1.62 111.69, 0 96.64 M20.04 116.68 C7.64 116.2, 0.09 109.23, 0 96.64 M0 96.64 C1.23 76.55, -1.99 53.1, 0 20.04 M0 96.64 C0.43 71.42, -0.97 46.75, 0 20.04 M0 20.04 C0.81 5.12, 5.15 -0.28, 20.04 0 M0 20.04 C-0.45 4.42, 6.26 2.03, 20.04 0" stroke="#343a40" stroke-width="2" fill="none"></path></g><g stroke-linecap="round" transform="translate(385.7319195575915 111.41989562433474) rotate(0 40.08198547708594 60.56833360981876)"><path d="M2.86 7.78 C2.86 7.78, 2.86 7.78, 2.86 7.78 M2.86 7.78 C2.86 7.78, 2.86 7.78, 2.86 7.78 M4.3 18.32 C6.89 15.73, 10.2 11.49, 20.05 0.2 M4.3 18.32 C8.56 11.64, 14.47 5.56, 20.05 0.2 M3.78 31.11 C9.92 24.75, 17.3 17.67, 30.68 0.17 M3.78 31.11 C12.85 19.18, 22.59 9.14, 30.68 0.17 M3.91 43.15 C15.01 30.4, 22 18.43, 41.31 0.13 M3.91 43.15 C15.96 27.64, 28.82 13.06, 41.31 0.13 M4.05 55.19 C13.63 40.42, 27.39 27.28, 51.94 0.1 M4.05 55.19 C23.27 33.61, 42.38 10.91, 51.94 0.1 M4.18 67.23 C24.24 47.85, 42.8 25.8, 62.57 0.06 M4.18 67.23 C22.94 44.9, 41.08 24.02, 62.57 0.06 M3.66 80.03 C24.76 55.16, 46.47 30.5, 69.26 4.56 M3.66 80.03 C20.22 60.93, 35.91 40.96, 69.26 4.56 M3.79 92.07 C28.72 62.67, 54.04 35.52, 77.92 6.79 M3.79 92.07 C19.76 73.55, 35.54 54.64, 77.92 6.79 M3.92 104.11 C35.59 70.4, 63.84 34.67, 81.99 14.3 M3.92 104.11 C22.5 81.7, 42.79 57.38, 81.99 14.3 M6.02 113.89 C29.77 82.27, 57.15 53.37, 84.09 24.08 M6.02 113.89 C32.51 82.54, 58.93 53.02, 84.09 24.08 M10.75 120.65 C35.36 93.07, 59.73 63.62, 84.23 36.12 M10.75 120.65 C32.46 95.59, 55.1 70.28, 84.23 36.12 M18.76 123.63 C43.21 96.75, 64.78 70.41, 84.36 48.16 M18.76 123.63 C42.03 96.86, 65.01 72.23, 84.36 48.16 M29.39 123.6 C48.73 98.69, 67.56 76.07, 84.49 60.2 M29.39 123.6 C41.36 108.82, 53.93 94.45, 84.49 60.2 M40.02 123.56 C50.13 110.75, 65.31 94.6, 83.97 73 M40.02 123.56 C52.63 109.49, 64.22 95.05, 83.97 73 M49.99 124.28 C58.03 113.64, 67.19 107.78, 84.1 85.04 M49.99 124.28 C58.14 114.17, 66.52 104.82, 84.1 85.04 M61.93 122.74 C68.64 117.48, 72.06 112.15, 84.24 97.08 M61.93 122.74 C69.11 114.15, 77.14 104.57, 84.24 97.08 M5.04 116.15 C5.04 116.15, 5.04 116.15, 5.04 116.15 M5.04 116.15 C5.04 116.15, 5.04 116.15, 5.04 116.15 M18.59 117.33 C14.19 114.24, 8.94 108.91, 5 105.52 M18.59 117.33 C15.03 113.78, 11.18 111.45, 5 105.52 M30.63 117.19 C19.57 110.33, 10.89 98.67, 4.97 94.89 M30.63 117.19 C23.92 110.51, 15.78 105.07, 4.97 94.89 M43.42 117.72 C31.07 108.7, 22.71 98.48, 4.93 84.26 M43.42 117.72 C29.1 106.11, 14.06 92.45, 4.93 84.26 M55.46 117.58 C43.69 106.26, 33.91 96.29, 5.65 74.28 M55.46 117.58 C39.89 104.36, 25.54 90.71, 5.65 74.28 M69.77 119.42 C53.04 107.65, 41.39 96.01, 5.62 63.65 M69.77 119.42 C46.01 98.49, 21.56 76.84, 5.62 63.65 M76.53 114.69 C54.14 93.2, 28.83 73.38, 5.58 53.02 M76.53 114.69 C54.81 95.77, 32.56 76.14, 5.58 53.02 M80.26 107.34 C63.52 90.45, 44.23 76.35, 5.55 42.39 M80.26 107.34 C57.13 88.54, 36.44 68.77, 5.55 42.39 M84.76 100.65 C63.95 83.74, 44.45 66.37, 5.51 31.76 M84.76 100.65 C57.77 78.4, 31.6 54.76, 5.51 31.76 M84.72 90.02 C62.53 72.59, 40.94 51.6, 5.48 21.13 M84.72 90.02 C57.97 65.06, 30.68 42.39, 5.48 21.13 M84.69 79.39 C62.71 61.76, 44.97 43.2, 4.69 9.85 M84.69 79.39 C56.84 54.04, 29.62 31.69, 4.69 9.85 M84.65 68.76 C66.01 52.55, 51.71 39.12, 8.43 2.5 M84.65 68.76 C61.66 50.18, 40.2 30.67, 8.43 2.5 M84.62 58.13 C60.33 34.12, 33.3 15.27, 18.21 0.4 M84.62 58.13 C65.41 40.94, 45.15 23.95, 18.21 0.4 M84.59 47.5 C66.06 30.39, 48.02 15.17, 24.21 -4.99 M84.59 47.5 C67.75 33.52, 52.49 18.8, 24.21 -4.99 M84.55 36.87 C66.89 22.86, 53.59 7.52, 36.25 -5.12 M84.55 36.87 C69.5 24.43, 53.93 10.45, 36.25 -5.12 M84.52 26.24 C74.31 16.48, 62.26 8.37, 49.05 -4.6 M84.52 26.24 C72.25 15.28, 57.1 3.37, 49.05 -4.6 M79.2 11.02 C76.9 6.33, 73.33 3.79, 65.61 -0.79 M79.2 11.02 C76.02 8.34, 71.85 5.09, 65.61 -0.79" stroke="#e64980" stroke-width="1" fill="none"></path><path d="M20.04 0 M20.04 0 C32.93 1.46, 46.95 1.32, 60.12 0 M20.04 0 C29.71 1.13, 41.47 1.13, 60.12 0 M60.12 0 C73.97 1.18, 79.87 7.12, 80.16 20.04 M60.12 0 C75.61 1.48, 81.57 8.36, 80.16 20.04 M80.16 20.04 C78.42 50.95, 78.57 81.67, 80.16 101.1 M80.16 20.04 C81.42 43.41, 79.99 68.64, 80.16 101.1 M80.16 101.1 C81.38 116.42, 72.62 121.22, 60.12 121.14 M80.16 101.1 C78.8 115.18, 74.71 122.4, 60.12 121.14 M60.12 121.14 C50.33 119.21, 36.45 122.28, 20.04 121.14 M60.12 121.14 C50.93 121.6, 40.27 122.26, 20.04 121.14 M20.04 121.14 C7.96 119.31, 0.87 114.86, 0 101.1 M20.04 121.14 C8.08 119.41, 0.17 113.51, 0 101.1 M0 101.1 C-0.1 78.56, 2.12 54.09, 0 20.04 M0 101.1 C-0.82 82.64, -0.27 64.61, 0 20.04 M0 20.04 C-0.77 5.67, 5.53 -0.54, 20.04 0 M0 20.04 C2.17 4.73, 8.63 1.12, 20.04 0" stroke="#343a40" stroke-width="2" fill="none"></path></g><g transform="translate(18.72019272535158 10) rotate(0 49.47993469238281 12.5)"><text x="0" y="0" font-family="Virgil, Segoe UI Emoji" font-size="20px" fill="#343a40" text-anchor="start" style="white-space: pre;" direction="ltr" dominant-baseline="text-before-edge">image size</text></g><g transform="translate(1230.3181569188419 477.10910488662705) rotate(0 46.339942932128906 12.5)"><text x="0" y="0" font-family="Virgil, Segoe UI Emoji" font-size="20px" fill="#343a40" text-anchor="start" style="white-space: pre;" direction="ltr" dominant-baseline="text-before-edge">platforms</text></g><g stroke-linecap="round"><g transform="translate(86.00121132195125 362.9165909738938) rotate(0 543.0344723571453 0.4368349591230327)"><path d="M0.67 0.29 C181.7 0.47, 904.74 0.72, 1085.4 0.49" stroke="#343a40" stroke-width="2.5" fill="none" stroke-dasharray="8 10"></path></g></g><mask></mask><g transform="translate(1018.3570846766924 374.74121328850634) rotate(0 72.83991241455078 25)"><text x="145.67982482910156" y="0" font-family="Virgil, Segoe UI Emoji" font-size="20px" fill="#343a40" text-anchor="end" style="white-space: pre;" direction="ltr" dominant-baseline="text-before-edge">shared layers</text><text x="145.67982482910156" y="25" font-family="Virgil, Segoe UI Emoji" font-size="20px" fill="#343a40" text-anchor="end" style="white-space: pre;" direction="ltr" dominant-baseline="text-before-edge">rarely updated</text></g></svg>
